<svg width="375" height="297" viewBox="0 0 375 297" fill="none" xmlns="http://www.w3.org/2000/svg">
	<g clip-path="url(#clip0_11_7)">
	<path d="M269.39 35.92C238.81 21.43 212.23 12.11 189 6.6C200.58 7.27 212.88 8.42 226.03 10.14C226.38 10.19 327.54 21.4 357.61 74.72C364.21 86.42 365.89 99.36 364.1 112.79C337.48 66.58 269.66 36.05 269.39 35.92Z" fill="#2BAAE1"/>
	<path d="M15.7 64.41C20.8 58.47 26.7 52.21 33.83 46.07C9.90001 87.58 15.7 163.76 58.05 232.19C107.91 312.78 188.34 291.69 231.86 275.04C192.85 297.75 138.69 312.32 83.28 265.22C6.58001 200.03 -20.12 106.11 15.7 64.41Z" fill="#FFA400"/>
	<path d="M33.82 46.07C39.43 36.35 46.65 28.51 55.44 23.14C81.39 7.26 120.6 -9.64 189 6.6C104.82 1.72 60.63 22.98 33.82 46.07Z" fill="#E90E8A"/>
	<path d="M364.1 112.79C368.42 120.28 371.69 128.18 373.38 136.43C386.37 200.07 279.59 255.93 237.87 272.68C235.96 273.45 233.95 274.24 231.86 275.04C246.85 266.32 259.6 256.4 269.32 248.31C297.2 225.11 357.12 165.19 364.1 112.79Z" fill="#C2D500"/>
	<path d="M58.05 232.19C15.7 163.76 9.9 87.58 33.82 46.07C60.63 22.98 104.82 1.72 189 6.6C212.23 12.11 238.81 21.43 269.39 35.92C269.66 36.05 337.47 66.57 364.1 112.79C357.12 165.19 297.2 225.11 269.32 248.31C259.6 256.4 246.84 266.32 231.86 275.04C188.34 291.69 107.91 312.78 58.05 232.19Z" fill="#003A5D"/>
	<path d="M126.05 100.48C114.75 100.48 106.36 105.24 103.82 106.87C101.53 105.11 94.4 100.48 82.74 100.48C68.33 100.48 54.22 106.18 53.63 106.43L52.53 106.88V160.3H72.86V119.69C74.66 119.15 78.39 118.23 82.73 118.23C91.43 118.23 95.84 122.64 95.84 131.34V160.3H116.18V131.34C116.18 126.73 115.3 123.29 114.72 121.5C116.46 120.36 120.46 118.23 126.05 118.23C134.75 118.23 139.16 122.64 139.16 131.34V160.3H159.5V131.34C159.5 111.72 147.31 100.48 126.05 100.48Z" fill="white"/>
	<path d="M218.16 142.25C215.84 142.79 210.74 143.81 205.7 143.81C196.17 143.81 190.01 138.66 190.01 130.7V102.74H169.67V130.7C169.67 149.45 183.81 161.56 205.7 161.56C210.13 161.56 215.08 160.98 217.9 160.59C216.93 163.71 213.07 172.25 199.88 172.25C189.59 172.25 182.18 167.42 182.11 167.37L180.52 166.32L172.4 180.93L173.56 181.86C173.98 182.19 183.93 190 199.88 190C225.22 190 238.48 174.16 238.48 158.5V102.74H218.15V142.25H218.16Z" fill="white"/>
	<path d="M255.9 143.39C250.58 143.39 246.25 147.48 246.25 152.52C246.25 157.56 250.58 161.65 255.9 161.65C261.22 161.65 265.54 157.55 265.54 152.52C265.54 147.49 261.22 143.39 255.9 143.39Z" fill="#FFA400"/>
	<path d="M310.82 139.1L308.84 140.42C308.8 140.44 305.35 142.71 300.13 142.71C293.34 142.71 289.61 138.98 289.61 132.2V111.58H309.65V95.78H289.6V77.68H269.88L269.27 132.21C269.27 150.17 280.05 160.48 298.84 160.48C306.95 160.48 314.24 156.55 314.55 156.39L315.8 155.7L310.82 139.1Z" fill="white"/>
	</g>
	<defs>
	<clipPath id="clip0_11_7">
	<rect width="374.47" height="296.34" fill="white"/>
	</clipPath>
	</defs>
	</svg>
	