<svg width="76" height="76" viewBox="0 0 76 76" fill="none" xmlns="http://www.w3.org/2000/svg">
<g filter="url(#filter0_dd_2472_23668)">
<circle cx="38" cy="34" r="30" fill="white"/>
</g>
<path d="M24 23C24.5304 23 25.0391 22.7893 25.4142 22.4142C25.7893 22.0391 26 21.5304 26 21C26 20.4696 25.7893 19.9609 25.4142 19.5858C25.0391 19.2107 24.5304 19 24 19C23.4696 19 22.9609 19.2107 22.5858 19.5858C22.2107 19.9609 22 20.4696 22 21C22 21.5304 22.2107 22.0391 22.5858 22.4142C22.9609 22.7893 23.4696 23 24 23ZM30 21C30 20.7348 30.1054 20.4804 30.2929 20.2929C30.4804 20.1054 30.7348 20 31 20H53C53.2652 20 53.5196 20.1054 53.7071 20.2929C53.8946 20.4804 54 20.7348 54 21C54 21.2652 53.8946 21.5196 53.7071 21.7071C53.5196 21.8946 53.2652 22 53 22H31C30.7348 22 30.4804 21.8946 30.2929 21.7071C30.1054 21.5196 30 21.2652 30 21ZM30 31C30 30.7348 30.1054 30.4804 30.2929 30.2929C30.4804 30.1054 30.7348 30 31 30H53C53.2652 30 53.5196 30.1054 53.7071 30.2929C53.8946 30.4804 54 30.7348 54 31C54 31.2652 53.8946 31.5196 53.7071 31.7071C53.5196 31.8946 53.2652 32 53 32H31C30.7348 32 30.4804 31.8946 30.2929 31.7071C30.1054 31.5196 30 31.2652 30 31ZM36.044 42C36.1051 41.3233 36.2289 40.6538 36.414 40H31C30.7348 40 30.4804 40.1054 30.2929 40.2929C30.1054 40.4804 30 40.7348 30 41C30 41.2652 30.1054 41.5196 30.2929 41.7071C30.4804 41.8946 30.7348 42 31 42H36.044ZM26 41C26 41.5304 25.7893 42.0391 25.4142 42.4142C25.0391 42.7893 24.5304 43 24 43C23.4696 43 22.9609 42.7893 22.5858 42.4142C22.2107 42.0391 22 41.5304 22 41C22 40.4696 22.2107 39.9609 22.5858 39.5858C22.9609 39.2107 23.4696 39 24 39C24.5304 39 25.0391 39.2107 25.4142 39.5858C25.7893 39.9609 26 40.4696 26 41ZM24 33C24.5304 33 25.0391 32.7893 25.4142 32.4142C25.7893 32.0391 26 31.5304 26 31C26 30.4696 25.7893 29.9609 25.4142 29.5858C25.0391 29.2107 24.5304 29 24 29C23.4696 29 22.9609 29.2107 22.5858 29.5858C22.2107 29.9609 22 30.4696 22 31C22 31.5304 22.2107 32.0391 22.5858 32.4142C22.9609 32.7893 23.4696 33 24 33ZM56 43C56 45.3869 55.0518 47.6761 53.364 49.364C51.6761 51.0518 49.3869 52 47 52C44.613 52 42.3239 51.0518 40.636 49.364C38.9482 47.6761 38 45.3869 38 43C38 40.613 38.9482 38.3239 40.636 36.636C42.3239 34.9482 44.613 34 47 34C49.3869 34 51.6761 34.9482 53.364 36.636C55.0518 38.3239 56 40.613 56 43ZM48 39C48 38.7348 47.8946 38.4804 47.7071 38.2929C47.5196 38.1054 47.2652 38 47 38C46.7348 38 46.4804 38.1054 46.2929 38.2929C46.1054 38.4804 46 38.7348 46 39V42H43C42.7348 42 42.4804 42.1054 42.2929 42.2929C42.1054 42.4804 42 42.7348 42 43C42 43.2652 42.1054 43.5196 42.2929 43.7071C42.4804 43.8946 42.7348 44 43 44H46V47C46 47.2652 46.1054 47.5196 46.2929 47.7071C46.4804 47.8946 46.7348 48 47 48C47.2652 48 47.5196 47.8946 47.7071 47.7071C47.8946 47.5196 48 47.2652 48 47V44H51C51.2652 44 51.5196 43.8946 51.7071 43.7071C51.8946 43.5196 52 43.2652 52 43C52 42.7348 51.8946 42.4804 51.7071 42.2929C51.5196 42.1054 51.2652 42 51 42H48V39Z" fill="#003E5C"/>
<defs>
<filter id="filter0_dd_2472_23668" x="0" y="0" width="76" height="76" filterUnits="userSpaceOnUse" color-interpolation-filters="sRGB">
<feFlood flood-opacity="0" result="BackgroundImageFix"/>
<feColorMatrix in="SourceAlpha" type="matrix" values="0 0 0 0 0 0 0 0 0 0 0 0 0 0 0 0 0 0 127 0" result="hardAlpha"/>
<feOffset dy="4"/>
<feGaussianBlur stdDeviation="4"/>
<feColorMatrix type="matrix" values="0 0 0 0 0.32549 0 0 0 0 0.32549 0 0 0 0 0.32549 0 0 0 0.16 0"/>
<feBlend mode="normal" in2="BackgroundImageFix" result="effect1_dropShadow_2472_23668"/>
<feColorMatrix in="SourceAlpha" type="matrix" values="0 0 0 0 0 0 0 0 0 0 0 0 0 0 0 0 0 0 127 0" result="hardAlpha"/>
<feOffset/>
<feGaussianBlur stdDeviation="1"/>
<feColorMatrix type="matrix" values="0 0 0 0 0.101961 0 0 0 0 0.101961 0 0 0 0 0.101961 0 0 0 0.04 0"/>
<feBlend mode="normal" in2="effect1_dropShadow_2472_23668" result="effect2_dropShadow_2472_23668"/>
<feBlend mode="normal" in="SourceGraphic" in2="effect2_dropShadow_2472_23668" result="shape"/>
</filter>
</defs>
</svg>
